<svg width="28" height="28" viewBox="0 0 28 28" fill="none" xmlns="http://www.w3.org/2000/svg">
<g clip-path="url(#clip0_4653_47514)">
<path fill-rule="evenodd" clip-rule="evenodd" d="M14.0007 2.33398C13.6912 2.33398 13.3945 2.4569 13.1757 2.67569C12.9569 2.89449 12.834 3.19123 12.834 3.50065V14.0007C12.834 14.3101 12.9569 14.6068 13.1757 14.8256C13.3945 15.0444 13.6912 15.1673 14.0007 15.1673H24.5007C24.8101 15.1673 25.1068 15.0444 25.3256 14.8256C25.5444 14.6068 25.6673 14.3101 25.6673 14.0007C25.6673 7.55715 20.4442 2.33398 14.0007 2.33398ZM15.1673 12.834V4.73965C17.2234 4.99933 19.1348 5.93564 20.6002 7.40109C22.0657 8.86654 23.002 10.7779 23.2617 12.834H15.1673ZM10.3723 5.39882C10.6573 5.27814 10.8827 5.04921 10.9988 4.76237C11.115 4.47553 11.1125 4.15429 10.9918 3.86932C10.8711 3.58434 10.6422 3.35898 10.3554 3.2428C10.0685 3.12662 9.74729 3.12914 9.46232 3.24982C7.34893 4.14271 5.54561 5.63872 4.27778 7.55085C3.00994 9.46297 2.33384 11.7064 2.33398 14.0007C2.33398 20.4442 7.55715 25.6673 14.0007 25.6673C18.8365 25.6673 22.9828 22.725 24.7515 18.539C24.8722 18.254 24.8747 17.9328 24.7585 17.6459C24.6423 17.3591 24.417 17.1302 24.132 17.0095C23.847 16.8888 23.5258 16.8863 23.2389 17.0025C22.9521 17.1186 22.7232 17.344 22.6025 17.629C21.7642 19.6129 20.2658 21.2459 18.3611 22.2513C16.4565 23.2568 14.2628 23.5727 12.1519 23.1457C10.0409 22.7186 8.14251 21.5748 6.77845 19.9081C5.41438 18.2414 4.66854 16.1544 4.66732 14.0007C4.66726 12.1648 5.20841 10.3697 6.22312 8.83972C7.23782 7.30978 8.68105 6.11293 10.3723 5.39882Z" fill="#9DA4AE"/>
</g>
<defs>
<clipPath id="clip0_4653_47514">
<rect width="28" height="28" fill="white"/>
</clipPath>
</defs>
</svg>
